<?xml version="1.0" standalone="yes"?>
<svg xmlns="http://www.w3.org/2000/svg" width="2200" height="770">
<path style="fill:#010201; stroke:none;" d="M0 0L0 770L2200 770L2200 0L0 0z"/>
<path style="fill:#07fa81; stroke:none;" d="M331 553C324.594 551.531 319.064 548.653 313 546.258C295.144 539.206 276.745 530.339 258 526C254.115 534.311 248.724 541.669 242 547.91C218.699 569.536 180.064 569.211 156.015 548.674C144.504 538.845 136.458 523.774 133.618 509C129.549 487.828 131.438 462.973 144.301 445C164.72 416.469 203.808 406.766 234 426.09C244.782 432.991 252.895 442.887 259 454C273.358 450.081 288.267 444.859 302 439.125C311.559 435.134 321.69 429.524 332 428C330.753 416.507 320.064 404.585 312.916 396.004C288.376 366.547 252.294 348.097 214 345.965C191.088 344.689 168.803 345.813 147 353.951C92.5915 374.26 56.4356 425 55.0147 483C54.478 504.906 56.754 528.573 65.1983 549C86.4397 600.384 137.348 635 193 635C204.023 635 215.064 635.276 226 633.7C257.939 629.096 287.773 612.987 309.271 588.961C317.649 579.597 329.392 565.891 331 553M1414 566C1409.27 564.917 1405.38 562.182 1401 560.158C1390.25 555.188 1379.59 550.052 1369 544.759C1363.84 542.18 1355.79 536.815 1350 536.619C1344.72 536.44 1340.38 542.704 1337 545.985C1331.61 551.217 1324.95 555.142 1318 557.985C1294.1 567.766 1263.1 566.735 1242 550.471C1231.94 542.718 1224.62 531.714 1220 520L1432 520C1432.15 501.909 1434.03 484.108 1431.71 466C1426.57 425.722 1401.81 388.984 1368 367.181C1289.78 316.745 1167.81 352.331 1141.73 445C1139.55 452.728 1136.97 460.993 1136.17 469C1133.87 492.04 1135.53 516.997 1142.75 539C1156.26 580.21 1189.22 612.831 1230 627.135C1246.57 632.948 1264.53 635 1282 635C1322.16 635 1360.35 624.384 1390.29 596.385C1398.51 588.693 1411.09 577.189 1414 566M1647 372L1647 350C1621.3 350 1595.63 349.899 1570 351L1570 704L1625 704C1629.9 704 1641.42 706.124 1645.4 702.972C1647.36 701.417 1646.98 698.209 1647 696L1647 679L1647 608C1651.03 611.315 1654.7 615.128 1659 618.096C1675.67 629.602 1694.04 634 1714 634C1726.72 634 1738.82 632.745 1751 628.821C1761.25 625.518 1771.41 620.075 1780 613.625C1830.3 575.841 1841.61 507.674 1830.61 449C1826.91 429.251 1819.18 409.307 1807.24 393C1794.44 375.511 1777.32 360.849 1757 352.76C1720.18 338.105 1675.47 343.768 1647 372M664 630L743 630L743 493C743 470.783 742.105 447.852 763 433.955C774.722 426.159 792.267 424.054 806 426.464C814.815 428.011 823.226 431.509 832 433L832 373L831.999 358.001C831.986 356.028 832.289 353.398 830.972 351.738C829.042 349.306 823.832 349.045 821 348.424C810.982 346.228 801.203 346 791 346C782.825 346 774.102 345.145 766 346.3C731.895 351.162 699.438 368.892 681.453 399C662.825 430.185 664 463.972 664 499L664 630M359 350L359 416L359 482C359 495.834 357.858 510.228 359.17 524C361.977 553.478 371.97 582.399 393.285 603.714C399.761 610.19 407.119 615.378 415 619.988C425.117 625.907 435.621 629.402 447 631.883C460.113 634.743 475.653 635.311 489 633.714C499.687 632.436 511.136 630.243 521 625.819C529.755 621.892 537.422 616.076 546 612L546 630L625 630L625 350L545 350L545 485C545 503.914 549.191 527.83 537.236 543.999C531.374 551.929 522.133 556.452 513 559.494C487.924 567.846 455.38 560.059 443.877 534C435.044 513.99 438 490.361 438 469L438 350L359 350M842 350C842.858 358.558 847.729 367.098 850.989 375C857.67 391.192 864.566 407.545 870.564 424C889.161 475.017 909.471 525.487 929.45 576C936.533 593.909 944.885 611.777 951 630C969.097 630 986.994 630.828 1005 630.039C1010.58 629.795 1020.78 632.1 1025.61 628.972C1030.27 625.953 1031.64 615.879 1033.78 611C1041.26 593.949 1047.46 576.27 1054.46 559C1073.17 512.814 1091.21 466.314 1109.55 420C1115.89 404 1122.44 388.074 1128.61 372C1131.41 364.713 1135.4 357.669 1137 350L1079 350C1073.29 350 1061.41 347.742 1056.56 351.028C1053.15 353.338 1052.41 359.388 1051.04 363C1047.4 372.6 1044.32 382.522 1040.39 392C1026.34 425.848 1016.21 461.561 1001.31 495C996.597 505.582 995.187 521.562 987 530C986.808 523.373 983.53 517.957 981.355 511.83C977.928 502.177 974.554 492.571 970.914 483C959.552 453.121 949.642 422.42 937.15 393C932.84 382.85 929.471 372.303 925.529 362C924.311 358.816 923.702 353.008 920.686 351.028C915.863 347.861 904.616 350 899 350L842 350M1827 350C1827.16 355.572 1829.28 360.603 1830.5 366C1833.62 379.803 1837.62 393.305 1841.1 407C1854.29 458.739 1868.53 510.203 1881.48 562C1885.39 577.673 1889.36 593.323 1893.23 609C1894.96 615.985 1897.83 622.742 1898 630L1970 630C1971.88 615.176 1976.32 600.66 1979.2 586C1985.89 551.856 1993.08 517.619 2002 484C2003.66 487.939 2003.79 491.911 2004.86 496C2008.76 510.802 2011.12 526.048 2014.42 541C2020.92 570.417 2030.2 600.078 2034 630L2106 631C2106.28 620.838 2110.63 609.867 2113.1 600C2117.9 580.93 2122.87 561.94 2128.08 543C2139.67 500.902 2150.13 458.343 2160.75 416C2166.21 394.22 2174 372.296 2177 350L2102 351C2097.52 381.498 2089.17 411.899 2082.43 442C2077.21 465.272 2073.31 488.776 2068 512C2065.36 505.734 2064.74 498.654 2063.54 492C2061.91 482.978 2059.99 474.015 2058.39 465C2054.14 441.192 2047.84 417.755 2043.39 394C2041.39 383.336 2039.1 372.536 2036.53 362C2035.75 358.807 2035.49 353.039 2032.57 351.028C2028.59 348.298 2019.64 350 2015 350C1999.64 350 1984.3 350.998 1969 351C1967.04 366.52 1962.76 381.715 1959.51 397C1954.84 418.968 1950.92 441.13 1945.83 463C1942 479.458 1938.12 496.236 1936 513C1930.94 501.017 1930.33 486.68 1927.71 474C1922.22 447.327 1916.34 420.714 1911 394C1908.93 383.664 1906.46 373.383 1904.71 363C1904.2 359.965 1903.95 353.032 1901.4 351.028C1897.39 347.88 1885.92 350 1881 350L1827 350z"/>
<path style="fill:#010201; stroke:none;" d="M1220 457C1233.38 460.186 1249.27 458 1263 458L1347 458C1335.19 413.844 1275.58 400.725 1241 427.04C1231.32 434.405 1222.13 444.656 1220 457M1689 417.514C1669.14 421.515 1652.44 435.85 1648.02 456C1645.76 466.243 1647 477.561 1647 488C1647 500.402 1644.94 515.033 1648.75 527C1657.15 553.37 1686.4 567.925 1712.96 562.37C1745.75 555.513 1757 523.854 1757 494C1757 478.901 1756.74 463.132 1750.66 449C1740.45 425.267 1714.19 412.439 1689 417.514z"/>
<path style="fill:#07fa81; stroke:none;" d="M1487 544.428C1479.32 545.528 1472.58 547.748 1466 551.951C1443.64 566.24 1440.46 600.597 1458.19 619.961C1468.85 631.611 1484.71 635.702 1500 633.711C1527.09 630.181 1543.98 599.4 1535.03 574C1530.12 560.04 1518.82 550.511 1505 546.191C1498.98 544.309 1493.29 543.527 1487 544.428z"/>
</svg>
